HIERARCHY
ROOT Hips
{
	OFFSET 0.000000 87.230942 0.000000
	CHANNELS 6 Xposition Yposition Zposition Xrotation Yrotation Zrotation
	JOINT Pelvis
	{
		OFFSET 0.000000 0.000000 0.000000
		CHANNELS 3 Xrotation Yrotation Zrotation
		JOINT LeftUpLeg
		{
			OFFSET 12.017000 -9.376404 -2.439400
			CHANNELS 3 Xrotation Yrotation Zrotation
			JOINT LeftLeg
			{
				OFFSET -0.007312 -32.846973 2.110600
				CHANNELS 3 Xrotation Yrotation Zrotation
				JOINT LeftFoot
				{
					OFFSET 0.007312 -32.065170 -0.570400
					CHANNELS 3 Xrotation Yrotation Zrotation
					JOINT LeftToeBase
					{
						OFFSET 0.728300 -11.045900 13.180700
						CHANNELS 3 Xrotation Yrotation Zrotation
						End Site
						{
							OFFSET 0.000000 17.212589 0.000000
						}
					}
				}
				JOINT LeftPantLeg
				{
					OFFSET 0.002788 -16.709013 -3.143600
					CHANNELS 3 Xrotation Yrotation Zrotation
					End Site
					{
						OFFSET -0.605125 24.528742 0.000000
					}
				}
			}
			JOINT Left_Butt
			{
				OFFSET -6.630234 1.326584 -3.183700
				CHANNELS 3 Xrotation Yrotation Zrotation
				End Site
				{
					OFFSET -0.498041 20.188049 0.000000
				}
			}
		}
		JOINT RightUpLeg
		{
			OFFSET -11.717000 -9.376404 -2.439400
			CHANNELS 3 Xrotation Yrotation Zrotation
			JOINT RightLeg
			{
				OFFSET -0.003241 -32.846912 2.110600
				CHANNELS 3 Xrotation Yrotation Zrotation
				JOINT RightFoot
				{
					OFFSET 0.003241 -32.065136 -0.570500
					CHANNELS 3 Xrotation Yrotation Zrotation
					JOINT RightToeBase
					{
						OFFSET -0.728300 -11.045901 13.180700
						CHANNELS 3 Xrotation Yrotation Zrotation
						End Site
						{
							OFFSET 0.000000 17.212593 0.000000
						}
					}
				}
				JOINT RightPantLeg
				{
					OFFSET 0.008142 -16.708982 -3.143700
					CHANNELS 3 Xrotation Yrotation Zrotation
					End Site
					{
						OFFSET 0.605088 24.528715 0.000000
					}
				}
			}
			JOINT Right_Butt
			{
				OFFSET 6.630732 1.326584 -3.183700
				CHANNELS 3 Xrotation Yrotation Zrotation
				End Site
				{
					OFFSET 0.498015 20.188240 0.000000
				}
			}
		}
	}
	JOINT Spine
	{
		OFFSET -0.062400 7.848404 3.918300
		CHANNELS 3 Xrotation Yrotation Zrotation
		JOINT Spine1
		{
			OFFSET -0.072800 11.422302 0.713400
			CHANNELS 3 Xrotation Yrotation Zrotation
			JOINT Spine2
			{
				OFFSET -0.083200 13.054001 -1.931600
				CHANNELS 3 Xrotation Yrotation Zrotation
				JOINT Neck
				{
					OFFSET -0.092200 14.121796 -5.138800
					CHANNELS 3 Xrotation Yrotation Zrotation
					JOINT Head
					{
						OFFSET 0.000200 10.447403 -0.842000
						CHANNELS 3 Xrotation Yrotation Zrotation
						JOINT Visor
						{
							OFFSET 0.457100 25.671204 16.550400
							CHANNELS 3 Xrotation Yrotation Zrotation
							End Site
							{
								OFFSET 0.000000 26.061493 0.000000
							}
						}
						JOINT HairMidA
						{
							OFFSET 0.459400 31.585403 8.437400
							CHANNELS 3 Xrotation Yrotation Zrotation
							End Site
							{
								OFFSET 0.000000 26.061493 0.000000
							}
						}
						JOINT HairMidB
						{
							OFFSET 0.464000 33.309204 -8.389700
							CHANNELS 3 Xrotation Yrotation Zrotation
							End Site
							{
								OFFSET 0.000000 26.061493 0.000000
							}
						}
						JOINT HairMidC
						{
							OFFSET 0.466600 27.991196 -17.375099
							CHANNELS 3 Xrotation Yrotation Zrotation
							End Site
							{
								OFFSET 0.000000 26.061493 0.000000
							}
						}
						JOINT HairMidD
						{
							OFFSET 0.467700 17.888092 -21.169500
							CHANNELS 3 Xrotation Yrotation Zrotation
							End Site
							{
								OFFSET 0.000000 26.061493 0.000000
							}
						}
						JOINT HairMidE
						{
							OFFSET 5.325700 3.514603 -14.369699
							CHANNELS 3 Xrotation Yrotation Zrotation
							End Site
							{
								OFFSET 0.000000 26.061493 0.000000
							}
						}
						JOINT HairMidF
						{
							OFFSET -4.394100 3.514603 -14.372400
							CHANNELS 3 Xrotation Yrotation Zrotation
							End Site
							{
								OFFSET 0.000000 26.061493 0.000000
							}
						}
						JOINT HairLeftA
						{
							OFFSET 15.319900 25.746506 2.623300
							CHANNELS 3 Xrotation Yrotation Zrotation
							End Site
							{
								OFFSET 0.000000 26.061493 0.000000
							}
						}
						JOINT HairLeftB
						{
							OFFSET 12.619500 29.289398 -8.731499
							CHANNELS 3 Xrotation Yrotation Zrotation
							End Site
							{
								OFFSET 0.000000 26.061493 0.000000
							}
						}
						JOINT HairLeftC
						{
							OFFSET 15.714800 15.959900 2.909800
							CHANNELS 3 Xrotation Yrotation Zrotation
							End Site
							{
								OFFSET 0.000000 26.061493 0.000000
							}
						}
						JOINT HairLeftD
						{
							OFFSET 16.101700 18.437408 -7.553200
							CHANNELS 3 Xrotation Yrotation Zrotation
							End Site
							{
								OFFSET 0.000000 26.061493 0.000000
							}
						}
						JOINT HairLeftE
						{
							OFFSET 9.731900 17.915009 -18.316799
							CHANNELS 3 Xrotation Yrotation Zrotation
							End Site
							{
								OFFSET 0.000000 26.061493 0.000000
							}
						}
						JOINT HairLeftF
						{
							OFFSET 11.204300 4.953598 -9.668100
							CHANNELS 3 Xrotation Yrotation Zrotation
							End Site
							{
								OFFSET 0.000000 26.061493 0.000000
							}
						}
						JOINT HairRightA
						{
							OFFSET -14.397900 25.746307 2.615100
							CHANNELS 3 Xrotation Yrotation Zrotation
							End Site
							{
								OFFSET 0.000000 26.061493 0.000000
							}
						}
						JOINT HairRightB
						{
							OFFSET -11.691200 29.289200 -8.738199
							CHANNELS 3 Xrotation Yrotation Zrotation
							End Site
							{
								OFFSET 0.000000 26.061493 0.000000
							}
						}
						JOINT HairRightC
						{
							OFFSET -14.792900 15.959702 2.901400
							CHANNELS 3 Xrotation Yrotation Zrotation
							End Site
							{
								OFFSET 0.000000 26.061493 0.000000
							}
						}
						JOINT HairRightD
						{
							OFFSET -15.174000 18.437195 -7.561900
							CHANNELS 3 Xrotation Yrotation Zrotation
							End Site
							{
								OFFSET 0.000000 26.061493 0.000000
							}
						}
						JOINT HairRightE
						{
							OFFSET -8.798200 17.914902 -18.322001
							CHANNELS 3 Xrotation Yrotation Zrotation
							End Site
							{
								OFFSET 0.000000 26.061493 0.000000
							}
						}
						JOINT HairRightF
						{
							OFFSET -10.275200 4.953506 -9.674099
							CHANNELS 3 Xrotation Yrotation Zrotation
							End Site
							{
								OFFSET 0.000000 26.061493 0.000000
							}
						}
					}
				}
				JOINT LeftShoulder
				{
					OFFSET 5.133500 7.341202 -1.867600
					CHANNELS 3 Xrotation Yrotation Zrotation
					JOINT LeftArm
					{
						OFFSET 8.072663 0.936867 -2.176600
						CHANNELS 3 Xrotation Yrotation Zrotation
						JOINT LeftForeArm
						{
							OFFSET 31.271999 0.000000 0.000000
							CHANNELS 3 Xrotation Yrotation Zrotation
							JOINT LeftHand
							{
								OFFSET 31.771030 0.000000 0.000000
								CHANNELS 3 Xrotation Yrotation Zrotation
								JOINT LeftHandThumb1
								{
									OFFSET 2.886520 -2.557846 4.416640
									CHANNELS 3 Xrotation Yrotation Zrotation
									JOINT LeftHandThumb2
									{
										OFFSET 2.371025 -1.368912 1.368911
										CHANNELS 3 Xrotation Yrotation Zrotation
										JOINT LeftHandThumb3
										{
											OFFSET 2.243378 -1.295212 1.295213
											CHANNELS 3 Xrotation Yrotation Zrotation
											End Site
											{
												OFFSET -0.332611 2.876945 0.020015
											}
										}
									}
								}
								JOINT LeftHandIndex1
								{
									OFFSET 8.568985 -0.641945 3.119977
									CHANNELS 3 Xrotation Yrotation Zrotation
									JOINT LeftHandIndex2
									{
										OFFSET 3.348503 0.000000 0.000000
										CHANNELS 3 Xrotation Yrotation Zrotation
										JOINT LeftHandIndex3
										{
											OFFSET 3.314552 0.000000 0.000000
											CHANNELS 3 Xrotation Yrotation Zrotation
											End Site
											{
												OFFSET -1.032898 3.075485 0.678796
											}
										}
									}
								}
								JOINT LeftHandMiddle1
								{
									OFFSET 8.124603 0.000000 0.000000
									CHANNELS 3 Xrotation Yrotation Zrotation
									JOINT LeftHandMiddle2
									{
										OFFSET 4.166275 0.000000 0.000000
										CHANNELS 3 Xrotation Yrotation Zrotation
										JOINT LeftHandMiddle3
										{
											OFFSET 3.018135 0.000000 0.000000
											CHANNELS 3 Xrotation Yrotation Zrotation
											End Site
											{
												OFFSET -1.032700 2.767982 0.617226
											}
										}
									}
								}
								JOINT LeftHandRing1
								{
									OFFSET 8.571686 -0.031357 -2.884048
									CHANNELS 3 Xrotation Yrotation Zrotation
									JOINT LeftHandRing2
									{
										OFFSET 3.671181 0.000000 0.000000
										CHANNELS 3 Xrotation Yrotation Zrotation
										JOINT LeftHandRing3
										{
											OFFSET 2.728851 0.000000 0.000000
											CHANNELS 3 Xrotation Yrotation Zrotation
											End Site
											{
												OFFSET -0.815796 2.539223 0.577389
											}
										}
									}
								}
								JOINT LeftHandPinky1
								{
									OFFSET 7.854515 -0.675232 -5.213020
									CHANNELS 3 Xrotation Yrotation Zrotation
									JOINT LeftHandPinky2
									{
										OFFSET 3.068596 0.000000 0.000000
										CHANNELS 3 Xrotation Yrotation Zrotation
										JOINT LeftHandPinky3
										{
											OFFSET 2.396042 0.000000 0.000000
											CHANNELS 3 Xrotation Yrotation Zrotation
											End Site
											{
												OFFSET -0.524597 2.267998 0.567429
											}
										}
									}
								}
							}
							JOINT LeftSleeve
							{
								OFFSET 19.684509 -0.200119 0.476146
								CHANNELS 3 Xrotation Yrotation Zrotation
								End Site
								{
									OFFSET -0.031017 25.731133 -0.002868
								}
							}
						}
					}
				}
				JOINT RightShoulder
				{
					OFFSET -4.395900 7.341202 -1.870200
					CHANNELS 3 Xrotation Yrotation Zrotation
					JOINT RightArm
					{
						OFFSET -8.071453 0.936867 -2.181100
						CHANNELS 3 Xrotation Yrotation Zrotation
						JOINT RightForeArm
						{
							OFFSET -31.272011 0.000000 0.000000
							CHANNELS 3 Xrotation Yrotation Zrotation
							JOINT RightHand
							{
								OFFSET -31.771019 0.000000 0.000000
								CHANNELS 3 Xrotation Yrotation Zrotation
								JOINT RightHandThumb1
								{
									OFFSET -2.886520 -2.557808 4.416626
									CHANNELS 3 Xrotation Yrotation Zrotation
									JOINT RightHandThumb2
									{
										OFFSET -2.371056 -1.368927 1.368928
										CHANNELS 3 Xrotation Yrotation Zrotation
										JOINT RightHandThumb3
										{
											OFFSET -2.243362 -1.295204 1.295206
											CHANNELS 3 Xrotation Yrotation Zrotation
											End Site
											{
												OFFSET 0.332642 2.876938 0.020047
											}
										}
									}
								}
								JOINT RightHandIndex1
								{
									OFFSET -8.568993 -0.641953 3.120017
									CHANNELS 3 Xrotation Yrotation Zrotation
									JOINT RightHandIndex2
									{
										OFFSET -3.348518 0.000000 0.000000
										CHANNELS 3 Xrotation Yrotation Zrotation
										JOINT RightHandIndex3
										{
											OFFSET -3.314552 0.000000 0.000000
											CHANNELS 3 Xrotation Yrotation Zrotation
											End Site
											{
												OFFSET 1.032898 3.075478 0.678804
											}
										}
									}
								}
								JOINT RightHandMiddle1
								{
									OFFSET -8.124588 0.000000 0.000000
									CHANNELS 3 Xrotation Yrotation Zrotation
									JOINT RightHandMiddle2
									{
										OFFSET -4.166275 0.000000 0.000000
										CHANNELS 3 Xrotation Yrotation Zrotation
										JOINT RightHandMiddle3
										{
											OFFSET -3.018097 0.000000 0.000000
											CHANNELS 3 Xrotation Yrotation Zrotation
											End Site
											{
												OFFSET 1.032700 2.767937 0.617197
											}
										}
									}
								}
								JOINT RightHandRing1
								{
									OFFSET -8.571747 -0.031349 -2.884061
									CHANNELS 3 Xrotation Yrotation Zrotation
									JOINT RightHandRing2
									{
										OFFSET -3.671204 0.000000 0.000000
										CHANNELS 3 Xrotation Yrotation Zrotation
										JOINT RightHandRing3
										{
											OFFSET -2.728874 0.000000 0.000000
											CHANNELS 3 Xrotation Yrotation Zrotation
											End Site
											{
												OFFSET 0.815804 2.539261 0.577413
											}
										}
									}
								}
								JOINT RightHandPinky1
								{
									OFFSET -7.854561 -0.675247 -5.212970
									CHANNELS 3 Xrotation Yrotation Zrotation
									JOINT RightHandPinky2
									{
										OFFSET -3.068550 0.000000 0.000000
										CHANNELS 3 Xrotation Yrotation Zrotation
										JOINT RightHandPinky3
										{
											OFFSET -2.395981 0.000000 0.000000
											CHANNELS 3 Xrotation Yrotation Zrotation
											End Site
											{
												OFFSET 0.524605 2.267952 0.567413
											}
										}
									}
								}
							}
							JOINT RightSleeve
							{
								OFFSET -19.684753 -0.200165 0.476065
								CHANNELS 3 Xrotation Yrotation Zrotation
								End Site
								{
									OFFSET 0.031342 25.731255 -0.002917
								}
							}
						}
					}
				}
				JOINT Hood
				{
					OFFSET 0.369700 14.447800 -5.317800
					CHANNELS 3 Xrotation Yrotation Zrotation
					JOINT Hood1
					{
						OFFSET 0.001700 -5.553802 -5.895100
						CHANNELS 3 Xrotation Yrotation Zrotation
						JOINT Hood2
						{
							OFFSET -0.000200 -8.380501 0.763600
							CHANNELS 3 Xrotation Yrotation Zrotation
							End Site
							{
								OFFSET 0.000000 8.415215 0.000000
							}
						}
					}
				}
				JOINT Left_Breast
				{
					OFFSET 5.682500 3.120102 3.188800
					CHANNELS 3 Xrotation Yrotation Zrotation
					End Site
					{
						OFFSET 0.000000 10.528564 0.000000
					}
				}
				JOINT Right_Breast
				{
					OFFSET -4.947600 3.120102 3.185900
					CHANNELS 3 Xrotation Yrotation Zrotation
					End Site
					{
						OFFSET 0.000000 10.528564 0.000000
					}
				}
				JOINT Whistle
				{
					OFFSET 0.368200 11.471298 0.095400
					CHANNELS 3 Xrotation Yrotation Zrotation
					JOINT Whistle1
					{
						OFFSET -0.002000 -6.349899 7.479800
						CHANNELS 3 Xrotation Yrotation Zrotation
						JOINT Whistle2
						{
							OFFSET -0.001300 -8.217598 4.717600
							CHANNELS 3 Xrotation Yrotation Zrotation
							End Site
							{
								OFFSET 0.000000 9.475479 0.000000
							}
						}
					}
				}
			}
		}
		JOINT Belly
		{
			OFFSET 0.212400 1.593002 3.163700
			CHANNELS 3 Xrotation Yrotation Zrotation
			End Site
			{
				OFFSET 0.000000 7.496635 0.000000
			}
		}
	}
	JOINT FitGrandmaFacialAnim_Joint
	{
		OFFSET 1.150000 -86.211197 -1.220100
		CHANNELS 3 Xrotation Yrotation Zrotation
		End Site
		{
			OFFSET 0.000000 31.666618 0.000000
		}
	}
}
MOTION
Frames: 4
Frame Time: 0.016667
1.756159 72.342606 14.394737 0.273005 -30.046286 -2.164301 -0.000000 -0.000001 0.000000 -44.080719 1.212693 21.451285 69.379818 0.013010 0.364112 -26.053424 -7.372565 -12.188518 -0.000000 0.000000 -0.000000 -0.000000 0.000000 0.000000 0.000002 -0.000001 -0.000001 -9.693602 -17.682960 -29.157108 52.003018 -6.240448 -7.536761 -18.525703 -9.961247 23.505401 -0.000000 -0.000001 -0.000001 0.000001 0.000000 -0.000003 0.000002 -0.000001 -0.000000 12.036071 9.099830 -5.789121 2.723682 1.552885 -1.611382 2.746774 1.530466 -1.591251 -10.034645 9.444447 7.085842 -0.518327 7.859693 -1.080338 0.000001 0.000000 -0.000000 0.000001 0.000000 -0.000000 0.000001 0.000000 -0.000000 0.000001 0.000000 -0.000000 0.000001 0.000000 -0.000000 0.000001 0.000000 -0.000000 0.000001 0.000000 -0.000000 0.000001 0.000000 -0.000000 0.000001 0.000000 -0.000000 0.000001 0.000000 -0.000000 0.000001 0.000000 -0.000000 0.000001 0.000000 -0.000000 0.000001 0.000000 -0.000000 0.000001 0.000000 -0.000000 0.000001 0.000000 -0.000000 0.000001 0.000000 -0.000000 0.000001 0.000000 -0.000000 0.000001 0.000000 -0.000000 0.000001 0.000000 -0.000000 0.920483 1.300386 -6.093183 -59.606385 1.454202 -47.058784 0.000274 -109.149831 0.000256 1.999408 -7.850076 -14.416053 -6.141224 -11.690801 -6.761677 9.914136 42.595512 3.409842 -0.000003 0.000001 -0.000004 0.255311 3.378201 -45.814344 5.654077 5.847729 -88.067462 0.000000 0.000001 0.000002 -0.461475 3.841591 -39.722679 6.450728 5.820341 -95.892864 -0.000001 0.000000 -0.000003 0.469726 4.966839 -39.799437 8.181071 5.368650 -113.502991 0.000003 -0.000001 -0.000000 -3.762430 9.063704 -45.253814 5.342501 5.828984 -85.005304 0.000004 -0.000002 0.000001 -0.000001 -0.000002 0.000001 2.590445 21.406216 -4.318640 -39.313476 17.241001 46.560399 0.000013 113.312463 -0.000017 -14.981736 10.510284 -8.958510 -7.341096 13.749668 7.412332 9.855736 -44.489107 -3.903277 0.000000 0.000001 -0.000001 -0.124378 -2.384767 45.108871 4.500606 -4.654562 88.071171 -0.000003 0.000002 -0.000000 -0.761626 -2.932895 39.031068 5.133872 -4.632752 95.881635 0.000000 0.000001 -0.000002 0.154761 -4.068818 39.122658 6.509734 -4.273600 113.462884 0.000001 -0.000003 0.000000 -4.198877 -8.025533 44.637772 4.252895 -4.639596 85.014818 -0.000000 0.000005 0.000002 0.000001 -0.000001 -0.000001 0.000001 0.000001 -0.000000 0.000001 0.000001 -0.000000 0.000001 0.000001 -0.000000 0.000001 0.000001 -0.000000 0.000001 0.000001 -0.000000 0.000001 0.000001 0.000000 -0.000000 -0.000001 0.000001 -0.000000 -0.000001 0.000001 -0.000000 0.000002 -0.000001 -0.000000 -0.000001 0.000000 
1.712279 72.190125 13.535309 -0.350164 -31.810107 -2.100318 -0.000000 -0.000001 -0.000000 -43.518065 1.455094 22.274587 69.337854 0.510224 -0.104375 -25.728356 -7.151730 -12.583127 -0.000000 -0.000000 -0.000000 0.000001 0.000001 0.000001 -0.000001 -0.000000 -0.000000 -10.319643 -17.214705 -29.543433 53.154728 -6.301988 -6.890894 -19.830454 -12.084716 24.332042 -0.000000 0.000001 -0.000001 0.000001 0.000000 0.000001 0.000001 0.000002 -0.000000 12.073525 8.881744 -5.561790 2.734888 1.491813 -1.567834 2.758108 1.469817 -1.547381 -9.735268 9.809005 6.855221 -0.083816 9.175665 -1.657999 0.000001 0.000000 -0.000000 0.000001 0.000000 -0.000000 0.000001 0.000000 -0.000000 0.000001 0.000000 -0.000000 0.000001 0.000000 -0.000000 0.000001 0.000000 -0.000000 0.000001 0.000000 -0.000000 0.000001 0.000000 -0.000000 0.000001 0.000000 -0.000000 0.000001 0.000000 -0.000000 0.000001 0.000000 -0.000000 0.000001 0.000000 -0.000000 0.000001 0.000000 -0.000000 0.000001 0.000000 -0.000000 0.000001 0.000000 -0.000000 0.000001 0.000000 -0.000000 0.000001 0.000000 -0.000000 0.000001 0.000000 -0.000000 0.000001 0.000000 -0.000000 0.919436 1.163410 -5.967905 -60.124434 1.960611 -46.784153 0.000104 -108.853210 0.000137 2.167983 -7.474107 -14.181509 -6.141226 -11.690800 -6.761679 9.914140 42.595512 3.409842 -0.000002 0.000001 0.000002 0.255316 3.378203 -45.814337 5.654079 5.847728 -88.067469 0.000005 0.000002 -0.000003 -0.461470 3.841592 -39.722676 6.450733 5.820338 -95.892857 0.000000 0.000000 -0.000007 0.469734 4.966837 -39.799434 8.181069 5.368656 -113.502984 0.000000 -0.000003 0.000001 -3.762431 9.063697 -45.253818 5.342504 5.828980 -85.005297 0.000003 -0.000001 -0.000000 -0.000001 -0.000003 0.000001 2.580086 21.227876 -4.233256 -40.248860 17.716334 48.393919 -0.000001 112.648247 0.000007 -15.571935 11.037970 -9.454332 -7.341095 13.749671 7.412336 9.855737 -44.489107 -3.903282 0.000000 0.000001 0.000001 -0.124375 -2.384766 45.108874 4.500603 -4.654563 88.071164 -0.000001 0.000002 -0.000000 -0.761625 -2.932893 39.031068 5.133875 -4.632753 95.881635 -0.000000 0.000001 -0.000003 0.154763 -4.068814 39.122664 6.509741 -4.273600 113.462884 -0.000000 -0.000003 0.000000 -4.198875 -8.025529 44.637772 4.252894 -4.639601 85.014818 -0.000003 -0.000002 0.000001 0.000000 0.000002 -0.000000 -0.000000 0.000001 -0.000001 -0.000000 0.000001 -0.000001 -0.000000 0.000001 -0.000001 -0.000000 0.000001 -0.000001 -0.000000 0.000001 -0.000001 -0.000000 0.000001 -0.000000 -0.000002 0.000001 0.000001 -0.000002 0.000001 0.000001 -0.000001 -0.000002 0.000000 -0.000000 -0.000001 -0.000000 
1.630216 72.045486 12.639617 -0.890834 -33.371939 -1.980067 0.000000 0.000002 0.000000 -43.065053 1.709954 23.036046 69.182296 0.932602 -0.538568 -25.262296 -6.982364 -12.905598 0.000000 0.000001 -0.000000 -0.000001 -0.000000 0.000001 -0.000005 -0.000000 -0.000001 -10.729286 -16.750725 -29.378556 53.886993 -6.391739 -6.871048 -21.233532 -14.546281 25.300190 0.000000 -0.000001 -0.000001 0.000002 -0.000003 -0.000003 0.000001 0.000001 -0.000000 12.068840 8.643480 -5.350047 2.734735 1.427246 -1.530578 2.757621 1.406164 -1.509498 -9.369968 10.141569 6.579432 0.350803 10.288566 -2.099688 0.000001 0.000000 -0.000000 0.000001 0.000000 -0.000000 0.000001 0.000000 -0.000000 0.000001 0.000000 -0.000000 0.000001 0.000000 -0.000000 0.000001 0.000000 -0.000000 0.000001 0.000000 -0.000000 0.000001 0.000000 -0.000000 0.000001 0.000000 -0.000000 0.000001 0.000000 -0.000000 0.000001 0.000000 -0.000000 0.000001 0.000000 -0.000000 0.000001 0.000000 -0.000000 0.000001 0.000000 -0.000000 0.000001 0.000000 -0.000000 0.000001 0.000000 -0.000000 0.000001 0.000000 -0.000000 0.000001 0.000000 -0.000000 0.000001 0.000000 -0.000000 0.848218 1.234092 -5.801386 -60.427380 2.491316 -46.713047 0.000239 -108.401010 0.000238 2.365832 -7.630703 -14.447809 -6.141226 -11.690798 -6.761676 9.914138 42.595515 3.409844 -0.000003 0.000002 -0.000004 0.255311 3.378204 -45.814341 5.654079 5.847729 -88.067469 -0.000001 -0.000000 0.000002 -0.461476 3.841588 -39.722676 6.450729 5.820334 -95.892864 0.000003 0.000000 -0.000001 0.469727 4.966839 -39.799437 8.181075 5.368645 -113.502991 0.000003 0.000002 0.000001 -3.762436 9.063699 -45.253814 5.342504 5.828979 -85.005297 -0.000001 -0.000001 0.000002 0.000000 0.000000 -0.000001 2.551274 20.915489 -4.132412 -41.238319 18.236694 50.341407 0.000135 112.007753 -0.000128 -15.687966 11.432319 -9.498030 -7.341093 13.749668 7.412331 9.855744 -44.489103 -3.903281 0.000001 0.000004 -0.000005 -0.124376 -2.384771 45.108874 4.500604 -4.654564 88.071171 -0.000004 0.000000 0.000003 -0.761626 -2.932896 39.031065 5.133874 -4.632750 95.881642 0.000000 0.000001 0.000001 0.154764 -4.068815 39.122654 6.509735 -4.273602 113.462884 -0.000000 -0.000003 -0.000003 -4.198872 -8.025536 44.637769 4.252894 -4.639596 85.014811 -0.000001 -0.000002 -0.000001 -0.000002 0.000003 -0.000002 -0.000000 -0.000002 -0.000000 -0.000000 -0.000002 -0.000000 -0.000000 -0.000002 -0.000000 -0.000000 -0.000002 -0.000000 -0.000000 -0.000002 -0.000000 -0.000000 -0.000002 0.000000 -0.000000 -0.000000 0.000000 -0.000000 -0.000000 0.000000 0.000000 0.000001 -0.000000 0.000000 0.000002 0.000000 
1.519923 71.911392 11.702785 -1.371475 -34.739332 -1.807885 -0.000000 0.000002 0.000000 -42.698381 1.959178 23.712439 68.894998 1.298425 -0.927666 -24.642477 -6.865440 -13.172916 0.000000 -0.000003 -0.000000 0.000001 -0.000001 0.000002 -0.000003 -0.000001 -0.000000 -11.164684 -16.318700 -29.149506 54.487776 -6.559639 -6.993135 -22.856110 -16.466445 26.020789 0.000000 0.000000 0.000000 -0.000002 -0.000003 -0.000001 -0.000001 -0.000001 0.000000 12.050837 8.396054 -5.143531 2.730768 1.361156 -1.496505 2.753151 1.341172 -1.474810 -8.933136 10.442608 6.282900 0.750987 11.295834 -2.539360 0.000001 0.000000 0.000000 0.000001 0.000000 0.000000 0.000001 0.000000 0.000000 0.000001 0.000000 0.000000 0.000001 0.000000 0.000000 0.000001 0.000000 0.000000 0.000001 0.000000 0.000000 0.000001 0.000000 0.000000 0.000001 0.000000 0.000000 0.000001 0.000000 0.000000 0.000001 0.000000 0.000000 0.000001 0.000000 0.000000 0.000001 0.000000 0.000000 0.000001 0.000000 0.000000 0.000001 0.000000 0.000000 0.000001 0.000000 0.000000 0.000001 0.000000 0.000000 0.000001 0.000000 0.000000 0.000001 0.000000 0.000000 0.768325 1.378890 -5.675012 -60.613933 2.997520 -46.738004 0.000164 -107.926572 0.000167 2.461852 -7.936542 -14.879215 -6.141225 -11.690800 -6.761674 9.914138 42.595512 3.409847 -0.000005 0.000005 -0.000004 0.255309 3.378201 -45.814337 5.654078 5.847728 -88.067469 0.000003 -0.000001 0.000002 -0.461474 3.841589 -39.722676 6.450733 5.820336 -95.892857 -0.000002 0.000002 -0.000001 0.469724 4.966834 -39.799437 8.181073 5.368648 -113.502991 0.000001 0.000003 -0.000001 -3.762432 9.063699 -45.253814 5.342503 5.828983 -85.005304 0.000000 -0.000005 0.000002 0.000001 -0.000000 -0.000002 2.521654 20.583214 -4.040483 -42.285411 18.731705 52.282151 0.000107 111.411320 -0.000107 -15.585599 11.755233 -9.399766 -7.341092 13.749669 7.412336 9.855744 -44.489107 -3.903276 0.000001 -0.000003 -0.000002 -0.124374 -2.384766 45.108874 4.500604 -4.654564 88.071171 -0.000002 -0.000001 0.000001 -0.761622 -2.932897 39.031068 5.133877 -4.632753 95.881635 -0.000003 0.000003 0.000001 0.154765 -4.068815 39.122661 6.509734 -4.273599 113.462884 0.000001 -0.000004 0.000002 -4.198875 -8.025535 44.637776 4.252890 -4.639595 85.014818 -0.000003 -0.000000 -0.000002 0.000002 0.000000 -0.000001 -0.000000 -0.000001 -0.000000 -0.000000 -0.000001 -0.000000 -0.000000 -0.000001 -0.000000 -0.000000 -0.000001 -0.000000 -0.000000 -0.000001 -0.000000 -0.000000 -0.000001 -0.000000 -0.000000 -0.000001 0.000000 -0.000000 -0.000001 0.000000 -0.000000 0.000000 -0.000000 -0.000000 0.000002 0.000000 
